<svg xmlns="http://www.w3.org/2000/svg" viewBox="0 0 54 54"><style type="text/css">
	.st0{fill:#DBA40C;}
	.st1{fill:#113F63;}
	.st2{fill:#FFFFFF;}
</style><circle class="st0" cx="27" cy="27" r="27"/><title>  bubble</title><path class="st1" d="M27 11.5c9.1 0 16.5 6 16.5 13.4S36.1 38.3 27 38.3c-0.9 0-1.7-0.1-2.6-0.2 -3.6 3.6-7.8 4.2-11.9 4.3v-0.9c2.2-1.1 4.1-3.1 4.1-5.3 0-0.3 0-0.6-0.1-0.9 -3.6-2.4-6-6.1-6-10.4C10.5 17.5 17.9 11.5 27 11.5z"/><circle class="st2" cx="20" cy="24.9" r="2"/><circle class="st2" cx="27" cy="24.9" r="2"/><circle class="st2" cx="34" cy="24.9" r="2"/></svg>
